<svg class="icon" viewBox="0 0 1024 1024" xmlns="http://www.w3.org/2000/svg" width="200" height="200"><path d="M604.7 441.6c0 51.2-42.1 92.8-94.1 92.8s-94.1-41.5-94.1-92.8H219.1L289 904.8h419l69.8-463.2H604.7z" fill="#E12313"/><path d="M377.6 769l-85.5 12.2-69.6-485.9 82.1-36.1z" fill="#EECD5E"/><path d="M400.2 802.4h-86.3l16.6-769.9L400.2 56z" fill="#EECD5E"/><path d="M457.9 802.4l-85.8-8.8 65.6-640.4 62.3 22.1z" fill="#EECD5E"/><path d="M530.5 796l-85.4-12.7 103-689.8 64.9-6.3zm119.9-39.4l-88.1-8.7 52.5-512.2 88.1 8.6z" fill="#EECD5E"/><path d="M650 712.4l-80.4-31.2 186.2-480.1 90.7 4.8z" fill="#EECD5E"/><path d="M372.1 769l-85.4 12.2-69.6-485.9 82-36.1z" fill="#FFDD67"/><path d="M394.7 802.4h-86.3L325 32.5 394.7 56z" fill="#FFDD67"/><path d="M452.5 802.4l-85.9-8.8 65.6-640.4 62.4 22.1z" fill="#FFDD67"/><path d="M525 796l-85.3-12.7 103-689.8 64.8-6.3zm120-39.4l-88.2-8.7 52.5-512.2 88.1 8.6z" fill="#FFDD67"/><path d="M644.6 712.4l-80.5-31.2 186.2-480.1 90.7 4.8z" fill="#FFDD67"/><path d="M592.7 441.6c0 50.4-40.8 91.2-91.2 91.2s-91.2-40.8-91.2-91.2H219.1l67.7 455.3h406l67.7-455.3H592.7z" fill="#F32719"/><path d="M560.4 590.9c24.5 0 44.3 103.1 44.3 230.2h35.4c0-136.9-35.7-247.9-79.7-247.9-25 0-47.4 33.4-62 85.5-14.6-52.2-37-85.5-62-85.5-44 0-79.7 111-79.7 247.9h35.4c0-127.2 19.8-230.2 44.3-230.2 24.4 0 44.3 95.1 44.3 212.5h35.4c0-117.4 19.9-212.5 44.3-212.5zm0 0" fill="#FFDD67"/></svg>